{"title":"The.Man.Who.Knew.Infinity.2015.LIMITED.1080p.BluRay.x264-GECKOS","uid":15564450,"size":8229272999,"categoryP":"video","categoryS":"hd___movies","magnet":"?xt=urn:btih:a4011baec09c02fd34e506b6cd24b6face9c7066&amp;dn=The.Man.Who.Knew.Infinity.2015.LIMITED.1080p.BluRay.x264-GECKOS&amp;tr=udp%3A%2F%2Ftracker.leechers-paradise.org%3A6969&amp;tr=udp%3A%2F%2Fzer0day.ch%3A1337&amp;tr=udp%3A%2F%2Fopen.demonii.com%3A1337&amp;tr=udp%3A%2F%2Ftracker.coppersurfer.tk%3A6969&amp;tr=udp%3A%2F%2Fexodus.desync.com%3A6969","seeders":30,"leechers":9,"uploader":"Horisarte","files":6,"time":1471176320,"description":"The.Man.Who.Knew.Infinity.2015.LIMITED.1080p.BluRay.x264-GECKOS\r\n \nhttp://imdb.com/title/tt0787524/\r\n\r\nVideo\r\nID                                       : 1\r\nFormat                                   : AVC\r\nFormat/Info                              : Advanced Video Codec\r\nFormat profile                           :   \r\nFormat settings, CABAC                   : Yes\r\nFormat settings, ReFrames                : 5 frames\r\nCodec ID                                 : V_MPEG4/ISO/AVC\r\nDuration                                 : 1h 48mn\r\nBit rate                                 : 8 578 Kbps\r\nWidth                                    : 1 920 pixels\r\nHeight                                   : 808 pixels\r\nDisplay aspect ratio                     : 2.40:1\r\nFrame rate mode                          : Constant\r\nFrame rate                               : 23.976 fps\r\nColor space                              : YUV\r\nChroma subsampling                       : 4:2:0\r\nBit depth                                : 8 bits\r\nScan type                                : Progressive\r\nBits/(Pixel*Frame)                       : 0.231\r\nStream size                              : 6.50 GiB (85%)\r\nWriting library                          : x264 core 148 r2692 64f4e24\r\nEncoding settings                        : cabac=1 / ref=5 / deblock=1:0:0 / analyse=0x3:0x133 / me=umh / subme=7 / psy=1 / psy_rd=1.00:0.00 / mixed_ref=1 / me_range=16 / chroma_me=1 / trellis=1 / 8x8dct=1 / cqm=0 / deadzone=21,11 / fast_pskip=0 / chroma_qp_offset=-2 / threads=18 / lookahead_threads=3 / sliced_threads=0 / nr=0 / decimate=1 / interlaced=0 / bluray_compat=0 / constrained_intra=0 / bframes=3 / b_pyramid=2 / b_adapt=1 / b_bias=0 / direct=1 / weightb=1 / open_gop=0 / weightp=2 / keyint=250 / keyint_min=23 / scenecut=40 / intra_refresh=0 / rc_lookahead=40 / rc=2pass / mbtree=1 / bitrate=8578 / ratetol=1.0 / qcomp=0.60 / qpmin=0 / qpmax=69 / qpstep=4 / cplxblur=20.0 / qblur=0.5 / ip_ratio=1.40 / aq=1:1.00\r\nLanguage                                 : English\r\nDefault                                  : Yes\r\nForced                                   : No\r\n\r\nAudio\r\nID                                       : 2\r\nFormat                                   : DTS\r\nFormat/Info                              : Digital Theater Systems\r\nMode                                     : 16\r\nFormat settings, Endianness              : Big\r\nCodec ID                                 : A_DTS\r\nDuration                                 : 1h 48mn\r\nBit rate mode                            : Constant\r\nBit rate                                 : 1 509 Kbps\r\nChannel(s)                               : 6 channels\r\nChannel positions                        : Front: L C R, Side: L R, LFE\r\nSampling rate                            : 48.0 KHz\r\nFrame rate                               : 93.750 fps (512 spf)\r\nBit depth                                : 24 bits\r\nCompression mode                         : Lossy\r\nStream size                              : 1.14 GiB (15%)\r\nLanguage                                 : English\r\nDefault                                  : Yes\r\nForced                                   : No\r\n\r\nMenu\r\n00:00:00.000                             : en:00:00:00.000\r\n00:07:39.042                             : en:00:07:39.042\r\n00:14:34.332                             : en:00:14:34.332\r\n00:21:34.543                             : en:00:21:34.543\r\n00:28:47.684                             : en:00:28:47.684\r\n00:34:30.235                             : en:00:34:30.235\r\n00:41:43.292                             : en:00:41:43.292\r\n00:49:05.401                             : en:00:49:05.401\r\n00:56:35.601                             : en:00:56:35.601\r\n01:03:21.089                             : en:01:03:21.089\r\n01:11:44.008                             : en:01:11:44.008\r\n01:19:10.579                             : en:01:19:10.579\r\n01:28:41.191                             : en:01:28:41.191\r\n01:35:57.585                             : en:01:35:57.585\r\n01:43:18.526                             : en:01:43:18.526","torrent":{"xt":"urn:btih:a4011baec09c02fd34e506b6cd24b6face9c7066","amp;dn":"The.Man.Who.Knew.Infinity.2015.LIMITED.1080p.BluRay.x264-GECKOS","amp;tr":["udp%3A%2F%2Ftracker.leechers-paradise.org%3A6969","udp%3A%2F%2Fzer0day.ch%3A1337","udp%3A%2F%2Fopen.demonii.com%3A1337","udp%3A%2F%2Ftracker.coppersurfer.tk%3A6969","udp%3A%2F%2Fexodus.desync.com%3A6969"],"infoHash":"a4011baec09c02fd34e506b6cd24b6face9c7066","infoHashBuffer":{"type":"Buffer","data":[164,1,27,174,192,156,2,253,52,229,6,182,205,36,182,250,206,156,112,102]},"announce":[],"urlList":[]}}